<svg width="1882" height="1339" viewBox="0 0 1882 1339" fill="none" xmlns="http://www.w3.org/2000/svg">
<rect width="1882" height="1339" fill="#1E1E1E"/>
<rect width="1882" height="1339" fill="white"/>
<rect x="1331" y="46" width="501" height="357" rx="20" fill="#E4E4E4"/>
<path d="M1467 217L1449.9 214.233L1456.05 230.424L1467 217ZM1364.53 257.542L1454.91 223.198L1453.85 220.393L1363.47 254.738L1364.53 257.542Z" fill="black"/>
<path d="M1473.39 237.048V234.949H1484.54V237.048H1473.39ZM1473.39 242.775V240.676H1484.54V242.775H1473.39ZM1493.88 245L1499.38 229.781H1501.93L1507.43 245H1504.94L1503.57 240.887H1497.74L1496.36 245H1493.88ZM1500.56 232.449L1498.38 238.988H1502.93L1500.74 232.449H1500.56ZM1510.46 245V233.546H1512.75V235.276H1512.91C1513.33 234.063 1514.39 233.346 1515.92 233.346C1516.29 233.346 1516.69 233.398 1516.92 233.451V235.561C1516.51 235.476 1516.12 235.423 1515.69 235.423C1513.94 235.423 1512.75 236.499 1512.75 238.155V245H1510.46ZM1524.27 245.221C1520.91 245.221 1518.89 242.933 1518.89 239.305V239.294C1518.89 235.719 1520.96 233.325 1524.15 233.325C1527.35 233.325 1529.31 235.634 1529.31 239.073V239.874H1521.19C1521.23 242.068 1522.43 243.344 1524.32 243.344C1525.79 243.344 1526.66 242.616 1526.94 242.026L1526.98 241.941L1529.18 241.931L1529.16 242.026C1528.78 243.534 1527.2 245.221 1524.27 245.221ZM1524.16 235.202C1522.6 235.202 1521.42 236.267 1521.22 238.239H1527.04C1526.86 236.193 1525.71 235.202 1524.16 235.202ZM1536.84 245.221C1534.08 245.221 1532.33 243.924 1532.11 242.005V241.994H1534.4L1534.41 242.005C1534.69 242.87 1535.53 243.45 1536.89 243.45C1538.3 243.45 1539.28 242.806 1539.28 241.868V241.846C1539.28 241.129 1538.74 240.644 1537.41 240.338L1535.59 239.916C1533.43 239.421 1532.43 238.44 1532.43 236.763V236.752C1532.43 234.759 1534.28 233.325 1536.88 233.325C1539.49 233.325 1541.17 234.632 1541.37 236.499V236.51H1539.19V236.489C1538.96 235.687 1538.15 235.086 1536.87 235.086C1535.61 235.086 1534.7 235.708 1534.7 236.626V236.647C1534.7 237.364 1535.23 237.807 1536.52 238.113L1538.33 238.524C1540.54 239.041 1541.59 239.98 1541.59 241.636V241.657C1541.59 243.777 1539.57 245.221 1536.84 245.221ZM1549.21 245.074C1546.69 245.074 1545.66 244.188 1545.66 241.984V235.35H1543.86V233.546H1545.66V230.656H1547.99V233.546H1550.44V235.35H1547.99V241.435C1547.99 242.669 1548.45 243.175 1549.58 243.175C1549.93 243.175 1550.13 243.165 1550.44 243.133V244.958C1550.07 245.021 1549.65 245.074 1549.21 245.074ZM1556.9 245.19C1554.72 245.19 1553.11 243.861 1553.11 241.783V241.762C1553.11 239.716 1554.65 238.524 1557.38 238.355L1560.48 238.176V237.164C1560.48 235.909 1559.69 235.212 1558.14 235.212C1556.87 235.212 1556.04 235.677 1555.76 236.489L1555.75 236.531H1553.55L1553.56 236.457C1553.83 234.58 1555.64 233.325 1558.24 233.325C1561.12 233.325 1562.75 234.759 1562.75 237.164V245H1560.48V243.376H1560.3C1559.62 244.536 1558.42 245.19 1556.9 245.19ZM1555.38 241.688C1555.38 242.743 1556.28 243.365 1557.51 243.365C1559.22 243.365 1560.48 242.247 1560.48 240.771V239.79L1557.68 239.969C1556.1 240.064 1555.38 240.634 1555.38 241.667V241.688Z" fill="black"/>
<circle cx="1413.5" cy="129.5" r="55.5" fill="#75AEE3"/>
<path d="M1483.39 129.048V126.949H1494.54V129.048H1483.39ZM1483.39 134.775V132.676H1494.54V134.775H1483.39ZM1505.05 137V121.781H1507.18L1515.01 132.855H1515.17V121.781H1517.47V137H1515.34L1507.52 125.947H1507.35V137H1505.05ZM1527.29 123.964H1525.49L1527.34 120.336H1529.78L1527.29 123.964ZM1526.53 137.221C1523.17 137.221 1521.11 134.975 1521.11 131.284V131.262C1521.11 127.582 1523.18 125.325 1526.53 125.325C1529.88 125.325 1531.94 127.571 1531.94 131.262V131.284C1531.94 134.975 1529.89 137.221 1526.53 137.221ZM1526.53 135.312C1528.49 135.312 1529.61 133.815 1529.61 131.284V131.262C1529.61 128.721 1528.49 127.234 1526.53 127.234C1524.56 127.234 1523.45 128.721 1523.45 131.262V131.284C1523.45 133.825 1524.56 135.312 1526.53 135.312Z" fill="black"/>
<path d="M1380.27 298.818L1384.85 309.058H1385.05L1393 298.818H1397.64L1387.34 311.909L1393.35 325H1388.79L1384.18 314.901H1383.98L1376 325H1371.36L1381.91 311.909L1375.76 298.818H1380.27ZM1395.7 332L1402.51 324.1L1399.15 316.781H1401.83L1404.31 322.466H1404.49L1409.43 316.781H1412.1L1405.31 324.47L1408.77 332H1406.2L1403.55 326.284H1403.38L1398.33 332H1395.7ZM1418.96 332H1416.57L1417.9 325.862L1414.45 316.781H1416.91L1419.47 323.436H1419.64L1424.89 316.781H1427.54L1420.22 326.073L1418.96 332Z" fill="black"/>
<path d="M1444.39 314.048V311.949H1455.54V314.048H1444.39ZM1444.39 319.775V317.676H1455.54V319.775H1444.39ZM1472.3 322.369C1468.07 322.369 1465.43 319.311 1465.43 314.406V314.385C1465.43 309.47 1468.06 306.412 1472.29 306.412C1475.64 306.412 1478.21 308.532 1478.62 311.559L1478.6 311.611H1476.26V311.58C1475.82 309.713 1474.29 308.5 1472.29 308.5C1469.56 308.5 1467.85 310.768 1467.85 314.385V314.406C1467.85 318.013 1469.56 320.281 1472.3 320.281C1474.31 320.281 1475.82 319.205 1476.25 317.486L1476.27 317.444H1478.62V317.507C1478.17 320.429 1475.69 322.369 1472.3 322.369ZM1485.25 322.19C1483.07 322.19 1481.46 320.861 1481.46 318.783V318.762C1481.46 316.716 1483 315.524 1485.73 315.355L1488.83 315.176V314.164C1488.83 312.909 1488.04 312.212 1486.49 312.212C1485.22 312.212 1484.39 312.677 1484.12 313.489L1484.1 313.531H1481.9L1481.91 313.457C1482.19 311.58 1483.99 310.325 1486.59 310.325C1489.47 310.325 1491.1 311.759 1491.1 314.164V322H1488.83V320.376H1488.65C1487.98 321.536 1486.77 322.19 1485.25 322.19ZM1483.74 318.688C1483.74 319.743 1484.63 320.365 1485.87 320.365C1487.57 320.365 1488.83 319.247 1488.83 317.771V316.79L1486.03 316.969C1484.45 317.064 1483.74 317.634 1483.74 318.667V318.688ZM1494.97 325.818V310.546H1497.26V312.35H1497.43C1498.09 311.095 1499.35 310.346 1500.95 310.346C1503.84 310.346 1505.7 312.655 1505.7 316.262V316.284C1505.7 319.912 1503.86 322.19 1500.95 322.19C1499.38 322.19 1498.04 321.42 1497.43 320.186H1497.26V325.818H1494.97ZM1500.31 320.239C1502.22 320.239 1503.37 318.741 1503.37 316.284V316.262C1503.37 313.795 1502.22 312.307 1500.31 312.307C1498.4 312.307 1497.22 313.816 1497.22 316.262V316.284C1497.22 318.73 1498.4 320.239 1500.31 320.239ZM1512.24 322.19C1510.06 322.19 1508.45 320.861 1508.45 318.783V318.762C1508.45 316.716 1509.99 315.524 1512.72 315.355L1515.82 315.176V314.164C1515.82 312.909 1515.03 312.212 1513.48 312.212C1512.21 312.212 1511.38 312.677 1511.1 313.489L1511.09 313.531H1508.89L1508.9 313.457C1509.17 311.58 1510.98 310.325 1513.58 310.325C1516.46 310.325 1518.09 311.759 1518.09 314.164V322H1515.82V320.376H1515.64C1514.96 321.536 1513.76 322.19 1512.24 322.19ZM1510.72 318.688C1510.72 319.743 1511.62 320.365 1512.85 320.365C1514.56 320.365 1515.82 319.247 1515.82 317.771V316.79L1513.02 316.969C1511.44 317.064 1510.72 317.634 1510.72 318.667V318.688ZM1526.78 322.221C1523.44 322.221 1521.39 319.943 1521.39 316.241V316.22C1521.39 312.592 1523.43 310.325 1526.77 310.325C1529.65 310.325 1531.37 311.949 1531.68 314.174V314.227L1529.49 314.237L1529.48 314.206C1529.23 313.077 1528.3 312.234 1526.78 312.234C1524.87 312.234 1523.72 313.752 1523.72 316.22V316.241C1523.72 318.773 1524.89 320.312 1526.78 320.312C1528.21 320.312 1529.1 319.659 1529.47 318.425L1529.49 318.372H1531.68L1531.66 318.467C1531.25 320.692 1529.62 322.221 1526.78 322.221ZM1536.12 308.5C1535.33 308.5 1534.68 307.857 1534.68 307.076C1534.68 306.285 1535.33 305.642 1536.12 305.642C1536.9 305.642 1537.55 306.285 1537.55 307.076C1537.55 307.857 1536.9 308.5 1536.12 308.5ZM1534.97 322V310.546H1537.25V322H1534.97ZM1545.41 322.19C1542.53 322.19 1540.66 319.88 1540.66 316.284V316.262C1540.66 312.634 1542.49 310.346 1545.41 310.346C1546.98 310.346 1548.32 311.126 1548.93 312.36H1549.11V306.053H1551.39V322H1549.11V320.196H1548.93C1548.26 321.452 1547.01 322.19 1545.41 322.19ZM1546.06 320.239C1547.97 320.239 1549.14 318.73 1549.14 316.284V316.262C1549.14 313.816 1547.96 312.307 1546.06 312.307C1544.14 312.307 1542.99 313.805 1542.99 316.262V316.284C1542.99 318.741 1544.14 320.239 1546.06 320.239ZM1558.58 322.19C1556.4 322.19 1554.79 320.861 1554.79 318.783V318.762C1554.79 316.716 1556.33 315.524 1559.06 315.355L1562.16 315.176V314.164C1562.16 312.909 1561.37 312.212 1559.82 312.212C1558.55 312.212 1557.72 312.677 1557.44 313.489L1557.43 313.531H1555.23L1555.24 313.457C1555.51 311.58 1557.32 310.325 1559.92 310.325C1562.8 310.325 1564.43 311.759 1564.43 314.164V322H1562.16V320.376H1561.98C1561.3 321.536 1560.1 322.19 1558.58 322.19ZM1557.06 318.688C1557.06 319.743 1557.96 320.365 1559.19 320.365C1560.9 320.365 1562.16 319.247 1562.16 317.771V316.79L1559.36 316.969C1557.78 317.064 1557.06 317.634 1557.06 318.667V318.688ZM1572.48 322.19C1569.6 322.19 1567.73 319.88 1567.73 316.284V316.262C1567.73 312.634 1569.57 310.346 1572.48 310.346C1574.05 310.346 1575.39 311.126 1576 312.36H1576.18V306.053H1578.46V322H1576.18V320.196H1576C1575.34 321.452 1574.08 322.19 1572.48 322.19ZM1573.13 320.239C1575.04 320.239 1576.21 318.73 1576.21 316.284V316.262C1576.21 313.816 1575.03 312.307 1573.13 312.307C1571.21 312.307 1570.06 313.805 1570.06 316.262V316.284C1570.06 318.741 1571.21 320.239 1573.13 320.239ZM1587.32 322.221C1583.97 322.221 1581.94 319.933 1581.94 316.305V316.294C1581.94 312.719 1584.01 310.325 1587.21 310.325C1590.4 310.325 1592.36 312.634 1592.36 316.073V316.874H1584.24C1584.28 319.068 1585.49 320.344 1587.37 320.344C1588.84 320.344 1589.72 319.616 1589.99 319.026L1590.03 318.941L1592.24 318.931L1592.22 319.026C1591.84 320.534 1590.25 322.221 1587.32 322.221ZM1587.22 312.202C1585.66 312.202 1584.47 313.267 1584.27 315.239H1590.1C1589.92 313.193 1588.77 312.202 1587.22 312.202ZM1602.29 322V310.546H1604.58V312.307H1604.74C1605.25 311.052 1606.37 310.325 1607.87 310.325C1609.43 310.325 1610.53 311.137 1611.04 312.371H1611.22C1611.8 311.137 1613.12 310.325 1614.71 310.325C1617.02 310.325 1618.37 311.717 1618.37 314.1V322H1616.09V314.649C1616.09 313.067 1615.38 312.286 1613.88 312.286C1612.42 312.286 1611.46 313.373 1611.46 314.754V322H1609.18V314.417C1609.18 313.109 1608.33 312.286 1606.98 312.286C1605.6 312.286 1604.58 313.468 1604.58 314.965V322H1602.29ZM1627.47 308.964H1625.66L1627.51 305.336H1629.95L1627.47 308.964ZM1625.36 322.19C1623.17 322.19 1621.56 320.861 1621.56 318.783V318.762C1621.56 316.716 1623.1 315.524 1625.83 315.355L1628.93 315.176V314.164C1628.93 312.909 1628.14 312.212 1626.59 312.212C1625.33 312.212 1624.49 312.677 1624.22 313.489L1624.21 313.531H1622L1622.01 313.457C1622.29 311.58 1624.09 310.325 1626.7 310.325C1629.58 310.325 1631.2 311.759 1631.2 314.164V322H1628.93V320.376H1628.75C1628.08 321.536 1626.88 322.19 1625.36 322.19ZM1623.84 318.688C1623.84 319.743 1624.73 320.365 1625.97 320.365C1627.68 320.365 1628.93 319.247 1628.93 317.771V316.79L1626.14 316.969C1624.56 317.064 1623.84 317.634 1623.84 318.667V318.688ZM1634.19 322L1638 316.294L1634.16 310.546H1636.81L1639.27 314.638H1639.45L1641.9 310.546H1644.43L1640.64 316.199L1644.47 322H1641.87L1639.36 317.866H1639.19L1636.68 322H1634.19ZM1648.69 308.5C1647.89 308.5 1647.25 307.857 1647.25 307.076C1647.25 306.285 1647.89 305.642 1648.69 305.642C1649.47 305.642 1650.12 306.285 1650.12 307.076C1650.12 307.857 1649.47 308.5 1648.69 308.5ZM1647.54 322V310.546H1649.81V322H1647.54ZM1653.79 322V310.546H1656.08V312.307H1656.25C1656.76 311.052 1657.88 310.325 1659.37 310.325C1660.94 310.325 1662.04 311.137 1662.55 312.371H1662.73C1663.31 311.137 1664.63 310.325 1666.22 310.325C1668.53 310.325 1669.88 311.717 1669.88 314.1V322H1667.6V314.649C1667.6 313.067 1666.88 312.286 1665.39 312.286C1663.93 312.286 1662.97 313.373 1662.97 314.754V322H1660.69V314.417C1660.69 313.109 1659.84 312.286 1658.49 312.286C1657.11 312.286 1656.08 313.468 1656.08 314.965V322H1653.79ZM1676.87 322.19C1674.68 322.19 1673.07 320.861 1673.07 318.783V318.762C1673.07 316.716 1674.61 315.524 1677.34 315.355L1680.44 315.176V314.164C1680.44 312.909 1679.65 312.212 1678.1 312.212C1676.83 312.212 1676 312.677 1675.73 313.489L1675.72 313.531H1673.51L1673.52 313.457C1673.8 311.58 1675.6 310.325 1678.21 310.325C1681.08 310.325 1682.71 311.759 1682.71 314.164V322H1680.44V320.376H1680.26C1679.59 321.536 1678.38 322.19 1676.87 322.19ZM1675.35 318.688C1675.35 319.743 1676.24 320.365 1677.48 320.365C1679.19 320.365 1680.44 319.247 1680.44 317.771V316.79L1677.65 316.969C1676.06 317.064 1675.35 317.634 1675.35 318.667V318.688ZM1697.95 322.221C1694.59 322.221 1692.57 319.933 1692.57 316.305V316.294C1692.57 312.719 1694.64 310.325 1697.83 310.325C1701.03 310.325 1702.99 312.634 1702.99 316.073V316.874H1694.87C1694.91 319.068 1696.11 320.344 1698 320.344C1699.47 320.344 1700.34 319.616 1700.62 319.026L1700.66 318.941L1702.86 318.931L1702.84 319.026C1702.46 320.534 1700.88 322.221 1697.95 322.221ZM1697.84 312.202C1696.28 312.202 1695.1 313.267 1694.9 315.239H1700.72C1700.54 313.193 1699.39 312.202 1697.84 312.202ZM1706.36 322V310.546H1708.65V312.307H1708.82C1709.32 311.052 1710.44 310.325 1711.94 310.325C1713.5 310.325 1714.61 311.137 1715.11 312.371H1715.29C1715.87 311.137 1717.19 310.325 1718.78 310.325C1721.09 310.325 1722.44 311.717 1722.44 314.1V322H1720.16V314.649C1720.16 313.067 1719.45 312.286 1717.95 312.286C1716.49 312.286 1715.53 313.373 1715.53 314.754V322H1713.26V314.417C1713.26 313.109 1712.4 312.286 1711.05 312.286C1709.67 312.286 1708.65 313.468 1708.65 314.965V322H1706.36ZM1448.97 348.074C1446.45 348.074 1445.42 347.188 1445.42 344.984V338.35H1443.62V336.546H1445.42V333.656H1447.75V336.546H1450.2V338.35H1447.75V344.435C1447.75 345.669 1448.21 346.175 1449.34 346.175C1449.69 346.175 1449.89 346.165 1450.2 346.133V347.958C1449.83 348.021 1449.41 348.074 1448.97 348.074ZM1458.24 348.221C1454.88 348.221 1452.82 345.975 1452.82 342.284V342.262C1452.82 338.582 1454.89 336.325 1458.24 336.325C1461.59 336.325 1463.66 338.571 1463.66 342.262V342.284C1463.66 345.975 1461.6 348.221 1458.24 348.221ZM1458.24 346.312C1460.21 346.312 1461.32 344.815 1461.32 342.284V342.262C1461.32 339.721 1460.21 338.234 1458.24 338.234C1456.27 338.234 1455.17 339.721 1455.17 342.262V342.284C1455.17 344.825 1456.27 346.312 1458.24 346.312ZM1467.04 348V336.546H1469.32V338.286H1469.49C1470.05 337.063 1471.15 336.325 1472.81 336.325C1475.38 336.325 1476.79 337.854 1476.79 340.586V348H1474.51V341.123C1474.51 339.225 1473.72 338.286 1472.04 338.286C1470.37 338.286 1469.32 339.436 1469.32 341.282V348H1467.04ZM1485.44 348.221C1482.09 348.221 1480.07 345.933 1480.07 342.305V342.294C1480.07 338.719 1482.13 336.325 1485.33 336.325C1488.52 336.325 1490.49 338.634 1490.49 342.073V342.874H1482.36C1482.41 345.068 1483.61 346.344 1485.5 346.344C1486.96 346.344 1487.84 345.616 1488.11 345.026L1488.15 344.941L1490.36 344.931L1490.34 345.026C1489.96 346.534 1488.38 348.221 1485.44 348.221ZM1485.34 338.202C1483.78 338.202 1482.6 339.267 1482.4 341.239H1488.22C1488.04 339.193 1486.89 338.202 1485.34 338.202ZM1493.96 348V332.053H1496.25V348H1493.96ZM1503.45 348.19C1501.26 348.19 1499.65 346.861 1499.65 344.783V344.762C1499.65 342.716 1501.19 341.524 1503.92 341.355L1507.02 341.176V340.164C1507.02 338.909 1506.23 338.212 1504.68 338.212C1503.41 338.212 1502.58 338.677 1502.31 339.489L1502.3 339.531H1500.09L1500.1 339.457C1500.38 337.58 1502.18 336.325 1504.79 336.325C1507.67 336.325 1509.29 337.759 1509.29 340.164V348H1507.02V346.376H1506.84C1506.17 347.536 1504.97 348.19 1503.45 348.19ZM1501.93 344.688C1501.93 345.743 1502.82 346.365 1504.06 346.365C1505.77 346.365 1507.02 345.247 1507.02 343.771V342.79L1504.23 342.969C1502.64 343.064 1501.93 343.634 1501.93 344.667V344.688ZM1517.34 348.19C1514.46 348.19 1512.6 345.88 1512.6 342.284V342.262C1512.6 338.634 1514.43 336.346 1517.34 336.346C1518.91 336.346 1520.25 337.126 1520.86 338.36H1521.04V332.053H1523.32V348H1521.04V346.196H1520.86C1520.2 347.452 1518.94 348.19 1517.34 348.19ZM1518 346.239C1519.9 346.239 1521.07 344.73 1521.07 342.284V342.262C1521.07 339.816 1519.89 338.307 1518 338.307C1516.08 338.307 1514.93 339.805 1514.93 342.262V342.284C1514.93 344.741 1516.08 346.239 1518 346.239ZM1530.52 348.19C1528.34 348.19 1526.72 346.861 1526.72 344.783V344.762C1526.72 342.716 1528.26 341.524 1530.99 341.355L1534.09 341.176V340.164C1534.09 338.909 1533.3 338.212 1531.75 338.212C1530.49 338.212 1529.65 338.677 1529.38 339.489L1529.37 339.531H1527.16L1527.18 339.457C1527.45 337.58 1529.25 336.325 1531.86 336.325C1534.74 336.325 1536.36 337.759 1536.36 340.164V348H1534.09V346.376H1533.91C1533.24 347.536 1532.04 348.19 1530.52 348.19ZM1529 344.688C1529 345.743 1529.9 346.365 1531.13 346.365C1532.84 346.365 1534.09 345.247 1534.09 343.771V342.79L1531.3 342.969C1529.72 343.064 1529 343.634 1529 344.667V344.688ZM1544.4 348.221C1541.64 348.221 1539.89 346.924 1539.67 345.005V344.994H1541.96L1541.97 345.005C1542.25 345.87 1543.08 346.45 1544.45 346.45C1545.86 346.45 1546.84 345.806 1546.84 344.868V344.846C1546.84 344.129 1546.3 343.644 1544.97 343.338L1543.15 342.916C1540.99 342.421 1539.98 341.44 1539.98 339.763V339.752C1539.98 337.759 1541.84 336.325 1544.43 336.325C1547.05 336.325 1548.73 337.632 1548.93 339.499V339.51H1546.74V339.489C1546.52 338.687 1545.71 338.086 1544.42 338.086C1543.17 338.086 1542.26 338.708 1542.26 339.626V339.647C1542.26 340.364 1542.79 340.807 1544.08 341.113L1545.89 341.524C1548.09 342.041 1549.15 342.98 1549.15 344.636V344.657C1549.15 346.777 1547.12 348.221 1544.4 348.221ZM1563.89 348.221C1560.54 348.221 1558.51 345.933 1558.51 342.305V342.294C1558.51 338.719 1560.58 336.325 1563.78 336.325C1566.97 336.325 1568.93 338.634 1568.93 342.073V342.874H1560.81C1560.86 345.068 1562.06 346.344 1563.95 346.344C1565.41 346.344 1566.29 345.616 1566.56 345.026L1566.6 344.941L1568.81 344.931L1568.79 345.026C1568.41 346.534 1566.82 348.221 1563.89 348.221ZM1563.79 338.202C1562.23 338.202 1561.04 339.267 1560.84 341.239H1566.67C1566.49 339.193 1565.34 338.202 1563.79 338.202ZM1572.3 348V336.546H1574.59V338.286H1574.76C1575.32 337.063 1576.42 336.325 1578.08 336.325C1580.65 336.325 1582.06 337.854 1582.06 340.586V348H1579.78V341.123C1579.78 339.225 1578.99 338.286 1577.31 338.286C1575.64 338.286 1574.59 339.436 1574.59 341.282V348H1572.3ZM1590.23 348.074C1587.71 348.074 1586.67 347.188 1586.67 344.984V338.35H1584.88V336.546H1586.67V333.656H1589V336.546H1591.46V338.35H1589V344.435C1589 345.669 1589.47 346.175 1590.6 346.175C1590.94 346.175 1591.14 346.165 1591.46 346.133V347.958C1591.09 348.021 1590.67 348.074 1590.23 348.074ZM1594.78 348V336.546H1597.07V338.276H1597.23C1597.65 337.063 1598.71 336.346 1600.24 336.346C1600.61 336.346 1601.01 336.398 1601.24 336.451V338.561C1600.83 338.476 1600.44 338.423 1600.01 338.423C1598.26 338.423 1597.07 339.499 1597.07 341.155V348H1594.78ZM1608.59 348.221C1605.23 348.221 1603.21 345.933 1603.21 342.305V342.294C1603.21 338.719 1605.28 336.325 1608.47 336.325C1611.67 336.325 1613.63 338.634 1613.63 342.073V342.874H1605.51C1605.55 345.068 1606.75 346.344 1608.64 346.344C1610.11 346.344 1610.98 345.616 1611.26 345.026L1611.3 344.941L1613.5 344.931L1613.48 345.026C1613.1 346.534 1611.52 348.221 1608.59 348.221ZM1608.48 338.202C1606.92 338.202 1605.74 339.267 1605.54 341.239H1611.36C1611.18 339.193 1610.03 338.202 1608.48 338.202ZM1628.4 348.221C1625.04 348.221 1622.98 345.975 1622.98 342.284V342.262C1622.98 338.582 1625.05 336.325 1628.4 336.325C1631.75 336.325 1633.81 338.571 1633.81 342.262V342.284C1633.81 345.975 1631.76 348.221 1628.4 348.221ZM1628.4 346.312C1630.37 346.312 1631.48 344.815 1631.48 342.284V342.262C1631.48 339.721 1630.37 338.234 1628.4 338.234C1626.43 338.234 1625.32 339.721 1625.32 342.262V342.284C1625.32 344.825 1626.43 346.312 1628.4 346.312ZM1643.75 348V336.546H1646.04V338.286H1646.21C1646.76 337.063 1647.86 336.325 1649.53 336.325C1652.09 336.325 1653.5 337.854 1653.5 340.586V348H1651.23V341.123C1651.23 339.225 1650.44 338.286 1648.76 338.286C1647.08 338.286 1646.04 339.436 1646.04 341.282V348H1643.75ZM1662.96 334.964H1661.16L1663.01 331.336H1665.45L1662.96 334.964ZM1662.2 348.221C1658.84 348.221 1656.78 345.975 1656.78 342.284V342.262C1656.78 338.582 1658.85 336.325 1662.2 336.325C1665.54 336.325 1667.61 338.571 1667.61 342.262V342.284C1667.61 345.975 1665.55 348.221 1662.2 348.221ZM1662.2 346.312C1664.16 346.312 1665.28 344.815 1665.28 342.284V342.262C1665.28 339.721 1664.16 338.234 1662.2 338.234C1660.23 338.234 1659.12 339.721 1659.12 342.262V342.284C1659.12 344.825 1660.23 346.312 1662.2 346.312ZM1676.83 348L1681.89 340.343V340.311L1676.88 332.781H1679.7L1683.46 338.677H1683.57L1687.34 332.781H1690L1684.84 340.385V340.427L1689.9 348H1687.14L1683.34 342.189H1683.26L1679.44 348H1676.83ZM1704.62 348.221C1701.26 348.221 1699.24 345.933 1699.24 342.305V342.294C1699.24 338.719 1701.3 336.325 1704.5 336.325C1707.7 336.325 1709.66 338.634 1709.66 342.073V342.874H1701.54C1701.58 345.068 1702.78 346.344 1704.67 346.344C1706.14 346.344 1707.01 345.616 1707.28 345.026L1707.33 344.941L1709.53 344.931L1709.51 345.026C1709.13 346.534 1707.55 348.221 1704.62 348.221ZM1704.51 338.202C1702.95 338.202 1701.77 339.267 1701.57 341.239H1707.39C1707.21 339.193 1706.06 338.202 1704.51 338.202ZM1724.43 348.221C1721.07 348.221 1719.01 345.975 1719.01 342.284V342.262C1719.01 338.582 1721.08 336.325 1724.43 336.325C1727.78 336.325 1729.84 338.571 1729.84 342.262V342.284C1729.84 345.975 1727.79 348.221 1724.43 348.221ZM1724.43 346.312C1726.39 346.312 1727.51 344.815 1727.51 342.284V342.262C1727.51 339.721 1726.39 338.234 1724.43 338.234C1722.46 338.234 1721.35 339.721 1721.35 342.262V342.284C1721.35 344.825 1722.46 346.312 1724.43 346.312ZM1739.78 348V336.546H1742.07V338.286H1742.23C1742.79 337.063 1743.89 336.325 1745.56 336.325C1748.12 336.325 1749.53 337.854 1749.53 340.586V348H1747.26V341.123C1747.26 339.225 1746.46 338.286 1744.79 338.286C1743.11 338.286 1742.07 339.436 1742.07 341.282V348H1739.78ZM1758.99 334.964H1757.18L1759.04 331.336H1761.48L1758.99 334.964ZM1758.23 348.221C1754.86 348.221 1752.81 345.975 1752.81 342.284V342.262C1752.81 338.582 1754.87 336.325 1758.23 336.325C1761.57 336.325 1763.64 338.571 1763.64 342.262V342.284C1763.64 345.975 1761.58 348.221 1758.23 348.221ZM1758.23 346.312C1760.19 346.312 1761.31 344.815 1761.31 342.284V342.262C1761.31 339.721 1760.19 338.234 1758.23 338.234C1756.26 338.234 1755.15 339.721 1755.15 342.262V342.284C1755.15 344.825 1756.26 346.312 1758.23 346.312ZM1778.02 348V341.767L1772.67 332.781H1775.29L1779.12 339.415H1779.3L1783.13 332.781H1785.75L1780.39 341.767V348H1778.02Z" fill="black"/>
<path d="M889.537 365.23L872.475 368.206L883.584 381.495L889.537 365.23ZM434 748L880.142 375.039L878.218 372.738L432.076 745.698L434 748Z" fill="black"/>
<path d="M882.364 494.629L865.045 494.419L873.522 509.523L882.364 494.629ZM434 748L871.326 502.544L869.857 499.928L432.532 745.384L434 748Z" fill="black"/>
<path d="M875.956 621.417L859.156 617.202L863.906 633.859L875.956 621.417ZM434 749L863.385 626.562L862.562 623.677L433.177 746.115L434 749Z" fill="black"/>
<path d="M877.576 874.551L865.543 862.094L860.771 878.745L877.576 874.551ZM434 749L864.186 872.275L865.012 869.391L434.826 746.116L434 749Z" fill="black"/>
<path d="M883.536 1000.02L874.72 985.116L866.217 1000.21L883.536 1000.02ZM435 749L871.039 994.704L872.511 992.091L436.473 746.386L435 749Z" fill="black"/>
<path d="M890.067 1130.77L884.183 1114.48L873.017 1127.73L890.067 1130.77ZM435 749L878.78 1123.22L880.714 1120.93L436.934 746.707L435 749Z" fill="black"/>
<path d="M921 746.903L905.989 738.261L906.01 755.582L921 746.903ZM434.995 749L445.121 748.988L445.117 745.988L434.992 746L434.995 749ZM465.371 748.963L485.621 748.938L485.617 745.938L465.367 745.963L465.371 748.963ZM505.871 748.913L526.122 748.888L526.118 745.888L505.868 745.913L505.871 748.913ZM546.372 748.863L566.622 748.838L566.618 745.838L546.368 745.863L546.372 748.863ZM586.872 748.813L607.123 748.789L607.119 745.789L586.869 745.813L586.872 748.813ZM627.373 748.764L647.623 748.739L647.62 745.739L627.369 745.764L627.373 748.764ZM667.873 748.714L688.124 748.689L688.12 745.689L667.87 745.714L667.873 748.714ZM708.374 748.664L728.624 748.639L728.621 745.639L708.37 745.664L708.374 748.664ZM748.874 748.614L769.125 748.59L769.121 745.59L748.871 745.614L748.874 748.614ZM789.375 748.565L809.625 748.54L809.622 745.54L789.371 745.565L789.375 748.565ZM829.876 748.515L850.126 748.49L850.122 745.49L829.872 745.515L829.876 748.515ZM870.376 748.465L890.626 748.44L890.623 745.44L870.372 745.465L870.376 748.465Z" fill="black"/>
<path d="M1395 815L1377.86 817.468L1388.57 831.081L1395 815ZM1383.46 822.168L938.073 1172.56L939.928 1174.92L1385.32 824.526L1383.46 822.168Z" fill="black"/>
<path d="M1382 793L1364.68 792.784L1373.15 807.891L1382 793ZM1369.49 798.295L939.266 1039.58L940.734 1042.2L1370.96 800.912L1369.49 798.295Z" fill="black"/>
<path d="M1371.52 771L1354.72 766.785L1359.47 783.442L1371.52 771ZM1358.12 773.259L957.589 887.471L958.411 890.356L1358.95 776.144L1358.12 773.259Z" fill="black"/>
<path d="M1368 748L1352.98 739.377L1353.02 756.698L1368 748ZM966.004 750.5L973.734 750.481L973.727 747.481L965.996 747.5L966.004 750.5ZM989.196 750.442L1004.66 750.404L1004.65 747.404L989.189 747.442L989.196 750.442ZM1020.12 750.365L1035.58 750.327L1035.57 747.327L1020.11 747.365L1020.12 750.365ZM1051.04 750.288L1066.5 750.25L1066.5 747.25L1051.03 747.288L1051.04 750.288ZM1081.97 750.212L1097.43 750.173L1097.42 747.173L1081.96 747.212L1081.97 750.212ZM1112.89 750.135L1128.35 750.096L1128.34 747.096L1112.88 747.135L1112.89 750.135ZM1143.81 750.058L1159.27 750.019L1159.27 747.019L1143.8 747.058L1143.81 750.058ZM1174.73 749.981L1190.2 749.942L1190.19 746.942L1174.73 746.981L1174.73 749.981ZM1205.66 749.904L1221.12 749.865L1221.11 746.865L1205.65 746.904L1205.66 749.904ZM1236.58 749.827L1252.04 749.788L1252.03 746.788L1236.57 746.827L1236.58 749.827ZM1267.5 749.75L1282.97 749.712L1282.96 746.712L1267.5 746.75L1267.5 749.75ZM1298.43 749.673L1313.89 749.635L1313.88 746.635L1298.42 746.673L1298.43 749.673ZM1329.35 749.596L1344.81 749.558L1344.8 746.558L1329.34 746.596L1329.35 749.596Z" fill="black"/>
<path d="M1368 728L1355.71 715.798L1351.29 732.544L1368 728ZM1355.33 723.104L940.383 613.55L939.617 616.45L1354.56 726.004L1355.33 723.104Z" fill="black"/>
<path d="M1372.79 711.113L1363.98 696.205L1355.47 711.294L1372.79 711.113ZM1361.77 703.179L952.736 472.693L951.264 475.307L1360.29 705.793L1361.77 703.179Z" fill="black"/>
<path d="M1388.4 696.938L1382.52 680.647L1371.35 693.888L1388.4 696.938ZM1379.05 687.088L958.967 332.853L957.033 335.147L1377.11 689.382L1379.05 687.088Z" fill="black"/>
<circle cx="434.5" cy="748.5" r="74.5" fill="#75AEE3"/>
<circle cx="1446.5" cy="748.5" r="74.5" fill="#75AEE3"/>
<path d="M414.188 771L430.469 725.906H438.031L454.312 771H446.938L442.875 758.812H425.625L421.531 771H414.188ZM433.969 733.812L427.5 753.188H441L434.5 733.812H433.969Z" fill="black"/>
<path d="M1430.66 771V725.906H1437.66V747.219H1438.16L1456.81 725.906H1465.09L1447.66 745.469L1466.59 771H1457.84L1442.72 750.219L1437.66 755.969V771H1430.66Z" fill="black"/>
<circle cx="939.5" cy="325.5" r="61.5" fill="#75AEE3"/>
<path d="M927.242 343V309.18H940.836C947.188 309.18 951.008 312.414 951.008 317.594V317.641C951.008 321.156 948.406 324.32 945.078 324.883V325.281C949.648 325.773 952.695 329.008 952.695 333.414V333.461C952.695 339.391 948.359 343 941.141 343H927.242ZM939.617 313.469H932.492V323.57H938.727C943.367 323.57 945.781 321.836 945.781 318.555V318.508C945.781 315.32 943.508 313.469 939.617 313.469ZM939.781 327.578H932.492V338.711H940.086C944.82 338.711 947.328 336.766 947.328 333.133V333.086C947.328 329.453 944.727 327.578 939.781 327.578Z" fill="black"/>
<circle cx="939.5" cy="464.5" r="61.5" fill="#75AEE3"/>
<path d="M940.117 482.82C930.719 482.82 924.859 476.023 924.859 465.125V465.078C924.859 454.156 930.695 447.359 940.094 447.359C947.547 447.359 953.266 452.07 954.156 458.797L954.133 458.914H948.93V458.844C947.945 454.695 944.547 452 940.094 452C934.023 452 930.227 457.039 930.227 465.078V465.125C930.227 473.141 934.023 478.18 940.117 478.18C944.594 478.18 947.945 475.789 948.906 471.969L948.953 471.875H954.156V472.016C953.172 478.508 947.664 482.82 940.117 482.82Z" fill="black"/>
<circle cx="939.5" cy="605.5" r="61.5" fill="#75AEE3"/>
<path d="M926.242 623V589.18H938.453C948.484 589.18 954.367 595.367 954.367 605.984V606.031C954.367 616.766 948.531 623 938.453 623H926.242ZM931.492 618.477H937.867C944.945 618.477 949.023 613.953 949.023 606.102V606.055C949.023 598.273 944.875 593.703 937.867 593.703H931.492V618.477Z" fill="black"/>
<circle cx="939.5" cy="893.5" r="61.5" fill="#75AEE3"/>
<path d="M925.242 911V877.18H930.492V891.477H947.859V877.18H953.086V911H947.859V896.023H930.492V911H925.242Z" fill="black"/>
<circle cx="939.5" cy="1032.5" r="61.5" fill="#75AEE3"/>
<path d="M936.242 1050V1016.18H941.492V1050H936.242Z" fill="black"/>
<circle cx="939.5" cy="1173.5" r="61.5" fill="#75AEE3"/>
<path d="M938.141 1191.82C931.883 1191.82 928.227 1188 927.945 1182.61L927.922 1182.33H933.102L933.125 1182.54C933.336 1185.12 934.953 1187.13 938.094 1187.13C941.562 1187.13 943.438 1185.05 943.438 1181.2V1157.18H948.688V1181.25C948.688 1187.91 944.773 1191.82 938.141 1191.82Z" fill="black"/>
<path d="M944.703 777.859C944.703 781.75 941.703 784.75 937.906 784.75C934.062 784.75 931.062 781.75 931.062 777.859C931.062 773.969 934.062 771.016 937.906 771.016C941.703 771.016 944.703 773.969 944.703 777.859ZM944.703 747.578C944.703 751.469 941.703 754.469 937.906 754.469C934.062 754.469 931.062 751.469 931.062 747.578C931.062 743.688 934.062 740.734 937.906 740.734C941.703 740.734 944.703 743.688 944.703 747.578ZM944.703 717.297C944.703 721.188 941.703 724.188 937.906 724.188C934.062 724.188 931.062 721.188 931.062 717.297C931.062 713.406 934.062 710.453 937.906 710.453C941.703 710.453 944.703 713.406 944.703 717.297Z" fill="black"/>
<path d="M667.063 496.318L677.394 500.686L677.544 500.546L676.376 487.634L679.769 484.469L681.162 501.071L694.484 506.547L691.146 509.66L680.892 505.412L680.743 505.552L681.796 518.378L678.402 521.543L677.188 504.776L663.763 499.396L667.063 496.318ZM708.985 502.596L705.845 500.001L701.571 503.986L702.66 508.494L700.84 510.191L696.901 493.055L698.698 491.379L710.713 500.984L708.985 502.596ZM699.217 494.703L700.96 501.845L704.354 498.68L699.348 494.58L699.217 494.703ZM717.967 494.22L713.131 498.73L705.119 485.391L709.231 481.557C711.136 479.78 713.285 479.579 714.651 481.045C715.982 482.472 716.066 484.542 714.853 486.179L714.952 486.331C716.364 485.418 717.882 485.56 718.953 486.71C720.867 488.762 720.459 491.896 717.967 494.22ZM707.922 485.489L710.248 489.391L712.385 487.398C713.928 485.96 714.273 484.196 713.237 483.085C712.388 482.175 711.293 482.345 709.943 483.604L707.922 485.489ZM713.794 495.328L716.402 492.897C717.921 491.479 718.257 489.566 717.17 488.401C716.214 487.375 714.993 487.504 713.605 488.799L711.229 491.014L713.794 495.328Z" fill="black"/>
<path d="M1131.57 430.058L1128.68 440.897L1128.84 441.025L1141.46 438.071L1145.07 440.992L1128.82 444.681L1125.26 458.636L1121.71 455.764L1124.49 445.019L1124.33 444.89L1111.77 447.718L1108.17 444.798L1124.6 441.262L1128.06 427.218L1131.57 430.058ZM1128.56 470.315L1123.42 466.154L1135.51 456.364L1139.88 459.902C1141.9 461.541 1142.4 463.641 1141.14 465.198C1139.91 466.715 1137.87 467.086 1136.09 466.112L1135.95 466.232C1137.05 467.503 1137.12 469.026 1136.13 470.247C1134.36 472.427 1131.2 472.459 1128.56 470.315ZM1135.8 459.153L1132.26 462L1134.53 463.838C1136.17 465.166 1137.97 465.262 1138.92 464.082C1139.71 463.114 1139.39 462.053 1137.95 460.892L1135.8 459.153ZM1126.88 466.337L1129.65 468.581C1131.26 469.888 1133.2 469.954 1134.21 468.717C1135.09 467.627 1134.79 466.436 1133.32 465.241L1130.79 463.196L1126.88 466.337ZM1137.03 477.175L1135.19 475.688L1147.28 465.898L1149.11 467.378L1143.47 471.931L1143.6 472.037L1154.06 471.387L1156.35 473.239L1146.42 473.923L1144.6 483.308L1142.49 481.602L1143.99 473.894L1140.94 474.057L1137.03 477.175Z" fill="black"/>
<path d="M1155.06 960.272L1165.39 964.64L1165.54 964.5L1164.38 951.588L1167.77 948.423L1169.16 965.025L1182.48 970.501L1179.15 973.614L1168.89 969.366L1168.74 969.506L1169.8 982.332L1166.4 985.497L1165.19 968.73L1151.76 963.35L1155.06 960.272ZM1186.94 970.773C1186.91 970.742 1186.87 970.704 1186.84 970.673L1188.55 969.083L1188.58 969.114C1189.43 969.979 1190.55 969.967 1191.52 969.06C1192.53 968.125 1192.57 966.918 1191.67 965.416L1186.01 955.973L1187.73 954.369L1193.63 964.194C1195.12 966.641 1194.92 968.977 1192.92 970.848C1191 972.639 1188.48 972.61 1186.94 970.773ZM1200.74 963.051L1199.01 964.662L1191 951.323L1192.72 949.719L1196.44 955.938L1196.56 955.823L1197.38 945.374L1199.53 943.368L1198.82 953.298L1207.86 956.404L1205.88 958.253L1198.46 955.703L1198.19 958.746L1200.74 963.051Z" fill="black"/>
<path d="M1113.37 806.447L1120.88 814.771L1121.08 814.708L1125.48 802.512L1129.89 801.078L1124.13 816.712L1133.89 827.306L1129.55 828.716L1122.06 820.533L1121.86 820.596L1117.4 832.667L1112.98 834.101L1118.97 818.391L1109.07 807.841L1113.37 806.447ZM1151.15 829.058L1148.87 829.801L1148.17 823.008L1140.78 825.41L1141.47 832.206L1139.2 832.943L1137.57 817.468L1139.85 816.728L1140.52 823.231L1147.93 820.825L1147.25 814.323L1149.53 813.583L1151.15 829.058ZM1157.64 826.951L1155.39 827.681L1153.77 812.206L1156.01 811.48L1156.75 818.689L1156.91 818.637L1162.06 809.511L1164.86 808.602L1160.03 817.304L1166.91 823.94L1164.33 824.777L1158.68 819.328L1157.15 821.974L1157.64 826.951Z" fill="black"/>
<path d="M1130.74 892.944L1140.16 899.039L1140.33 898.928L1141.42 886.009L1145.31 883.482L1143.8 900.073L1155.97 907.779L1152.14 910.265L1142.78 904.301L1142.61 904.413L1141.42 917.228L1137.53 919.755L1139.24 903.032L1126.95 895.402L1130.74 892.944ZM1164.56 910.547L1162.55 911.851L1156.98 897.324L1158.98 896.02L1164.56 910.547ZM1170.28 906.828L1168.3 908.115L1162.73 893.588L1164.7 892.307L1167.29 899.078L1167.43 898.986L1170.04 888.837L1172.51 887.235L1170.09 896.891L1178.46 901.521L1176.18 902.997L1169.31 899.196L1168.53 902.147L1170.28 906.828Z" fill="black"/>
<path d="M1096.86 513.552L1096.48 524.762L1096.67 524.851L1108.3 519.133L1112.47 521.168L1097.47 528.417L1097.13 542.817L1093.03 540.816L1093.32 529.721L1093.14 529.632L1081.54 535.212L1077.37 533.178L1092.59 526.035L1092.8 511.573L1096.86 513.552ZM1112.74 546.882C1112.75 546.873 1112.76 546.854 1112.77 546.816C1113.48 545.073 1112.72 543.34 1110.82 542.411C1108.01 541.042 1104.45 542.804 1102.65 546.491C1101.5 548.851 1102.12 550.982 1104.24 552.018C1105.99 552.869 1107.89 552.67 1109.03 551.527L1111.21 552.591C1109.28 554.897 1106.15 555.414 1103.06 553.907C1099.78 552.307 1098.71 549.025 1100.37 545.613C1102.83 540.57 1107.72 538.422 1111.94 540.484C1114.97 541.959 1116.26 545.055 1114.97 547.709C1114.93 547.785 1114.9 547.842 1114.86 547.913L1112.74 546.882ZM1113.85 558.76L1111.73 557.724L1121.31 545.465L1123.43 546.496L1118.95 552.2L1119.11 552.274L1129.15 549.288L1131.8 550.578L1122.27 553.479L1122.61 563.032L1120.18 561.844L1119.9 553.998L1116.96 554.843L1113.85 558.76Z" fill="black"/>
<path d="M1074.65 608.756L1076.23 619.861L1076.42 619.918L1086.89 612.266L1091.35 613.545L1077.84 623.289L1080 637.529L1075.62 636.271L1073.98 625.294L1073.78 625.238L1063.33 632.747L1058.87 631.468L1072.61 621.791L1070.31 607.513L1074.65 608.756ZM1088.56 631.431L1093.04 632.716C1096.99 633.85 1098.61 636.838 1097.5 640.711C1096.11 645.557 1091.82 648.2 1087.49 646.959L1081.27 645.174L1088.56 631.431ZM1089.86 634.022L1084.56 643.902L1088.03 644.896C1091.07 645.768 1094.07 643.841 1095.1 640.242C1095.88 637.515 1094.78 635.432 1092.11 634.668L1089.86 634.022ZM1099.4 650.373L1097.13 649.722L1104.44 635.985L1106.7 636.633L1103.28 643.027L1103.45 643.074L1112.82 638.389L1115.65 639.2L1106.77 643.71L1108.77 653.059L1106.16 652.312L1104.52 644.634L1101.78 645.975L1099.4 650.373Z" fill="black"/>
<path d="M749.82 878.669L749.054 889.859L749.234 889.955L761.063 884.647L765.16 886.826L749.916 893.547L749.076 907.926L745.046 905.783L745.724 894.706L745.543 894.61L733.758 899.782L729.661 897.603L745.119 890.996L745.835 876.551L749.82 878.669ZM757.533 920.351L758.964 916.537L753.805 913.794L749.897 916.291L747.699 915.122L762.62 905.819L764.79 906.973L759.619 921.46L757.533 920.351ZM761.816 908.545L755.63 912.518L759.727 914.697L761.974 908.629L761.816 908.545ZM764.652 924.136L762.538 923.012L772.542 911.095L774.656 912.218L764.652 924.136Z" fill="black"/>
<path d="M694.509 551.367L703.477 558.104L703.656 558.005L705.646 545.194L709.705 542.944L707.039 559.389L718.641 567.926L714.649 570.138L705.728 563.537L705.549 563.636L703.468 576.336L699.409 578.586L702.287 562.023L690.562 553.555L694.509 551.367ZM733.668 567.6L731.248 564.323L726.138 567.155L726.103 571.793L723.926 572.999L724.251 555.419L726.4 554.228L735.734 566.455L733.668 567.6ZM726.099 557.578L726.062 564.93L730.121 562.68L726.255 557.491L726.099 557.578ZM743.907 550.276C743.901 550.266 743.891 550.248 743.871 550.211C742.85 548.63 740.993 548.261 739.139 549.289C736.408 550.802 735.811 554.727 737.8 558.315C739.073 560.612 741.171 561.33 743.237 560.185C744.935 559.244 745.864 557.571 745.584 555.978L747.706 554.802C748.486 557.71 747.115 560.568 744.108 562.235C740.917 564.004 737.612 563.002 735.771 559.681C733.051 554.774 734.093 549.541 738.208 547.26C741.15 545.629 744.429 546.344 745.86 548.927C745.901 549.001 745.932 549.056 745.964 549.135L743.907 550.276Z" fill="black"/>
<path d="M741.648 790.756L743.225 801.861L743.422 801.918L753.888 794.266L758.349 795.545L744.836 805.289L747.003 819.529L742.616 818.271L740.976 807.294L740.779 807.238L730.327 814.747L725.866 813.468L739.613 803.791L737.31 789.513L741.648 790.756ZM757.859 829.924L758.466 825.895L752.849 824.285L749.546 827.54L747.153 826.854L759.813 814.652L762.176 815.329L760.13 830.575L757.859 829.924ZM759.593 817.485L754.369 822.658L758.83 823.937L759.766 817.535L759.593 817.485ZM775.393 834.952L773.081 834.289L776.3 828.267L768.828 826.124L765.599 832.143L763.308 831.486L770.615 817.749L772.917 818.409L769.837 824.175L777.319 826.32L780.399 820.554L782.7 821.214L775.393 834.952Z" fill="black"/>
<path d="M742.648 959.231L741.297 970.366L741.473 970.471L753.563 965.789L757.54 968.179L741.966 974.093L740.374 988.409L736.462 986.059L737.719 975.031L737.543 974.926L725.504 979.474L721.526 977.084L737.309 971.295L738.78 956.907L742.648 959.231ZM748.169 1001.26L749.798 997.525L744.79 994.516L740.756 996.805L738.623 995.523L754.01 987.014L756.116 988.279L750.195 1002.48L748.169 1001.26ZM753.064 989.694L746.679 993.338L750.656 995.728L753.218 989.786L753.064 989.694ZM754.769 1000.83C754.79 1000.8 754.817 1000.75 754.839 1000.71L756.837 1001.91L756.815 1001.95C756.218 1003.01 756.541 1004.09 757.68 1004.77C758.855 1005.48 760.027 1005.19 761.224 1003.91L768.741 995.865L770.757 997.076L762.939 1005.46C760.997 1007.56 758.696 1008.02 756.346 1006.6C754.095 1005.25 753.427 1002.82 754.769 1000.83Z" fill="black"/>
<path d="M722.382 622.632L729.603 631.214L729.8 631.158L734.621 619.123L739.082 617.844L732.786 633.268L742.17 644.195L737.783 645.453L730.575 637.013L730.378 637.07L725.494 648.977L721.033 650.256L727.563 634.765L718.044 623.876L722.382 622.632ZM756.884 647.258L755.264 643.52L749.648 645.131L748.571 649.642L746.178 650.328L750.449 633.271L752.811 632.593L759.155 646.607L756.884 647.258ZM751.764 635.79L750.074 642.946L754.535 641.667L751.936 635.741L751.764 635.79ZM761.251 630.173L765.732 628.888C769.686 627.755 772.646 629.429 773.756 633.302C775.146 638.148 772.907 642.663 768.578 643.905L762.353 645.69L761.251 630.173ZM763.734 631.678L764.473 642.865L767.94 641.871C770.982 640.999 772.504 637.776 771.472 634.177C770.69 631.449 768.651 630.268 765.985 631.032L763.734 631.678Z" fill="black"/>
<path d="M739.251 704.684L743.827 714.924H744.032L751.984 704.684H756.624L746.32 717.775L752.329 730.866H747.765L743.163 720.766H742.958L734.981 730.866H730.34L740.887 717.775L734.738 704.684H739.251ZM765.629 737.866L765.102 733.826H759.259L756.981 737.866H754.492L763.299 722.646H765.756L767.992 737.866H765.629ZM763.868 725.431L760.272 731.843H764.912L764.047 725.431H763.868ZM772.869 738.045C771.994 738.045 771.329 737.338 771.329 736.505C771.329 735.609 771.994 734.902 772.869 734.902C773.766 734.902 774.42 735.609 774.42 736.452C774.42 737.338 773.766 738.045 772.869 738.045ZM780.33 738.045C779.455 738.045 778.791 737.338 778.791 736.505C778.791 735.609 779.455 734.902 780.33 734.902C781.227 734.902 781.881 735.609 781.881 736.452C781.881 737.338 781.227 738.045 780.33 738.045ZM787.792 738.045C786.916 738.045 786.252 737.338 786.252 736.505C786.252 735.609 786.916 734.902 787.792 734.902C788.688 734.902 789.342 735.609 789.342 736.452C789.342 737.338 788.688 738.045 787.792 738.045Z" fill="black"/>
<path d="M1065.27 701.818L1069.85 712.058H1070.05L1078 701.818H1082.64L1072.34 714.909L1078.35 728H1073.79L1069.18 717.901H1068.98L1061 728H1056.36L1066.91 714.909L1060.76 701.818H1065.27ZM1083.22 735.179C1082.35 735.179 1081.68 734.473 1081.68 733.639C1081.68 732.743 1082.35 732.036 1083.22 732.036C1084.12 732.036 1084.77 732.743 1084.77 733.587C1084.77 734.473 1084.12 735.179 1083.22 735.179ZM1090.68 735.179C1089.81 735.179 1089.14 734.473 1089.14 733.639C1089.14 732.743 1089.81 732.036 1090.68 732.036C1091.58 732.036 1092.23 732.743 1092.23 733.587C1092.23 734.473 1091.58 735.179 1090.68 735.179ZM1098.15 735.179C1097.27 735.179 1096.61 734.473 1096.61 733.639C1096.61 732.743 1097.27 732.036 1098.15 732.036C1099.04 732.036 1099.7 732.743 1099.7 733.587C1099.7 734.473 1099.04 735.179 1098.15 735.179ZM1106.41 735H1104.05L1107.28 719.781H1109.64L1108.12 726.868H1108.29L1116.01 719.781H1118.95L1111.66 726.562L1116.15 735H1113.44L1109.75 728.071L1107.48 730.117L1106.41 735Z" fill="black"/>
<path d="M78.1481 94V62.2935H90.6506C97.1545 62.2935 101.197 66.0728 101.197 71.9614V72.0054C101.197 76.2681 98.9123 79.7397 95.0451 81.0361L102.164 94H96.4733L90.0134 81.8052H83.07V94H78.1481ZM83.07 77.8062H90.1672C93.9465 77.8062 96.1437 75.7407 96.1437 72.1372V72.0933C96.1437 68.5776 93.8146 66.4243 90.0134 66.4243H83.07V77.8062ZM118.324 94.4614C111.337 94.4614 107.118 89.6934 107.118 82.1348V82.1128C107.118 74.6641 111.424 69.6763 118.082 69.6763C124.74 69.6763 128.827 74.4883 128.827 81.6514V83.3213H111.908C111.996 87.8916 114.501 90.5503 118.434 90.5503C121.488 90.5503 123.312 89.0342 123.883 87.8037L123.971 87.6279L128.563 87.606L128.519 87.8037C127.728 90.9458 124.432 94.4614 118.324 94.4614ZM118.104 73.5874C114.852 73.5874 112.391 75.8066 111.974 79.9155H124.103C123.729 75.6528 121.334 73.5874 118.104 73.5874ZM135.846 101.954V70.1377H140.614V73.895H140.965C142.35 71.2803 144.964 69.7202 148.304 69.7202C154.325 69.7202 158.192 74.5322 158.192 82.0469V82.0908C158.192 89.6494 154.369 94.3955 148.304 94.3955C145.03 94.3955 142.24 92.7915 140.965 90.2207H140.614V101.954H135.846ZM146.964 90.3306C150.941 90.3306 153.336 87.2104 153.336 82.0908V82.0469C153.336 76.9053 150.941 73.8071 146.964 73.8071C142.987 73.8071 140.526 76.9492 140.526 82.0469V82.0908C140.526 87.1885 142.987 90.3306 146.964 90.3306ZM165.277 94V70.1377H170.045V73.7412H170.396C171.253 71.2144 173.473 69.7202 176.659 69.7202C177.428 69.7202 178.263 69.8301 178.746 69.9399V74.3345C177.889 74.1587 177.076 74.0488 176.175 74.0488C172.528 74.0488 170.045 76.29 170.045 79.7397V94H165.277ZM194.049 94.4614C187.061 94.4614 182.843 89.6934 182.843 82.1348V82.1128C182.843 74.6641 187.149 69.6763 193.807 69.6763C200.465 69.6763 204.552 74.4883 204.552 81.6514V83.3213H187.633C187.72 87.8916 190.225 90.5503 194.158 90.5503C197.213 90.5503 199.036 89.0342 199.608 87.8037L199.696 87.6279L204.288 87.606L204.244 87.8037C203.453 90.9458 200.157 94.4614 194.049 94.4614ZM193.829 73.5874C190.577 73.5874 188.116 75.8066 187.699 79.9155H199.827C199.454 75.6528 197.059 73.5874 193.829 73.5874ZM220.25 94.4614C214.493 94.4614 210.845 91.7588 210.384 87.7598V87.7378H215.152L215.174 87.7598C215.767 89.5615 217.503 90.77 220.338 90.77C223.282 90.77 225.325 89.4297 225.325 87.4741V87.4302C225.325 85.936 224.205 84.9253 221.436 84.2881L217.635 83.4092C213.131 82.3765 211.043 80.333 211.043 76.8394V76.8174C211.043 72.6646 214.91 69.6763 220.316 69.6763C225.765 69.6763 229.258 72.4009 229.676 76.29V76.312H225.128V76.2681C224.666 74.5981 222.974 73.3457 220.294 73.3457C217.679 73.3457 215.789 74.6421 215.789 76.5537V76.5977C215.789 78.0918 216.888 79.0146 219.569 79.6519L223.348 80.5088C227.94 81.5854 230.137 83.541 230.137 86.9907V87.0347C230.137 91.4512 225.919 94.4614 220.25 94.4614ZM247.198 94.4614C240.211 94.4614 235.992 89.6934 235.992 82.1348V82.1128C235.992 74.6641 240.298 69.6763 246.956 69.6763C253.614 69.6763 257.701 74.4883 257.701 81.6514V83.3213H240.782C240.87 87.8916 243.375 90.5503 247.308 90.5503C250.362 90.5503 252.186 89.0342 252.757 87.8037L252.845 87.6279L257.437 87.606L257.393 87.8037C256.602 90.9458 253.306 94.4614 247.198 94.4614ZM246.978 73.5874C243.726 73.5874 241.265 75.8066 240.848 79.9155H252.977C252.603 75.6528 250.208 73.5874 246.978 73.5874ZM264.72 94V70.1377H269.488V73.7632H269.839C271.004 71.2144 273.289 69.6763 276.761 69.6763C282.1 69.6763 285.044 72.8623 285.044 78.5532V94H280.298V79.6738C280.298 75.7188 278.65 73.7632 275.157 73.7632C271.663 73.7632 269.488 76.1582 269.488 80.0034V94H264.72ZM302.061 94.1538C296.809 94.1538 294.656 92.3081 294.656 87.7158V73.895H290.921V70.1377H294.656V64.1172H299.512V70.1377H304.632V73.895H299.512V86.5732C299.512 89.144 300.479 90.1987 302.83 90.1987C303.555 90.1987 303.973 90.1768 304.632 90.1108V93.9121C303.863 94.0439 302.984 94.1538 302.061 94.1538ZM318.089 94.3955C313.54 94.3955 310.178 91.627 310.178 87.2983V87.2544C310.178 82.9917 313.387 80.5088 319.077 80.1572L325.537 79.7837V77.6743C325.537 75.0596 323.889 73.6094 320.659 73.6094C318.023 73.6094 316.287 74.5762 315.716 76.2681L315.694 76.356H311.101L311.123 76.2021C311.695 72.291 315.452 69.6763 320.879 69.6763C326.878 69.6763 330.262 72.6646 330.262 77.6743V94H325.537V90.6162H325.164C323.758 93.0332 321.253 94.3955 318.089 94.3955ZM314.925 87.1006C314.925 89.2979 316.792 90.5942 319.363 90.5942C322.923 90.5942 325.537 88.2651 325.537 85.189V83.1455L319.715 83.519C316.419 83.7168 314.925 84.9033 314.925 87.0566V87.1006ZM347.542 104.854C346.311 104.854 345.103 104.701 344.026 104.459V101.756C344.422 101.844 345.52 102.042 346.773 102.042C348.069 102.042 349.497 101.646 349.497 100.416V100.372C349.497 99.0317 348.377 98.6582 346.179 98.6582H345.366V96.6147L346.904 94.3735C340.818 93.7363 337.149 89.166 337.149 82.0029V81.959C337.149 74.4004 341.389 69.6763 348.355 69.6763C354.353 69.6763 357.935 73.0601 358.594 77.6963V77.8062L354.024 77.8281L354.002 77.7622C353.474 75.4111 351.541 73.6533 348.377 73.6533C344.4 73.6533 342.005 76.8174 342.005 81.959V82.0029C342.005 87.2764 344.444 90.4844 348.377 90.4844C351.365 90.4844 353.211 89.1221 353.98 86.5513L354.024 86.4414H358.594L358.55 86.6392C357.781 90.7261 355.056 93.6704 350.376 94.3296L349.058 96.1753C351.87 96.2192 353.738 97.8013 353.738 100.24V100.284C353.738 103.492 350.904 104.854 347.542 104.854ZM377.983 66.71C376.336 66.71 375.193 65.9629 373.941 64.7764L373.633 64.5127C372.82 63.7217 372.358 63.502 371.765 63.502C370.711 63.502 370.095 64.5786 370.095 66.688V66.7759H366.712V66.5562C366.712 62.667 368.425 60.25 371.37 60.25C373.018 60.25 374.182 60.9971 375.413 62.1616L375.72 62.4473C376.533 63.2163 377.017 63.436 377.588 63.436C378.665 63.436 379.28 62.3813 379.28 60.272V60.1841H382.664V60.4038C382.664 64.271 380.928 66.71 377.983 66.71ZM371.897 94.3955C367.349 94.3955 363.987 91.627 363.987 87.2983V87.2544C363.987 82.9917 367.195 80.5088 372.886 80.1572L379.346 79.7837V77.6743C379.346 75.0596 377.698 73.6094 374.468 73.6094C371.831 73.6094 370.095 74.5762 369.524 76.2681L369.502 76.356H364.91L364.932 76.2021C365.503 72.291 369.26 69.6763 374.688 69.6763C380.686 69.6763 384.07 72.6646 384.07 77.6743V94H379.346V90.6162H378.972C377.566 93.0332 375.061 94.3955 371.897 94.3955ZM368.733 87.1006C368.733 89.2979 370.601 90.5942 373.171 90.5942C376.731 90.5942 379.346 88.2651 379.346 85.189V83.1455L373.523 83.519C370.227 83.7168 368.733 84.9033 368.733 87.0566V87.1006ZM402.251 94.4614C395.242 94.4614 390.957 89.7812 390.957 82.0908V82.0469C390.957 74.3784 395.264 69.6763 402.251 69.6763C409.216 69.6763 413.523 74.3564 413.523 82.0469V82.0908C413.523 89.7812 409.238 94.4614 402.251 94.4614ZM402.251 90.4844C406.338 90.4844 408.667 87.3643 408.667 82.0908V82.0469C408.667 76.7515 406.338 73.6533 402.251 73.6533C398.142 73.6533 395.835 76.7515 395.835 82.0469V82.0908C395.835 87.3862 398.142 90.4844 402.251 90.4844ZM442.898 94.4614C437.141 94.4614 433.493 91.7588 433.032 87.7598V87.7378H437.8L437.822 87.7598C438.415 89.5615 440.151 90.77 442.986 90.77C445.93 90.77 447.973 89.4297 447.973 87.4741V87.4302C447.973 85.936 446.853 84.9253 444.084 84.2881L440.283 83.4092C435.779 82.3765 433.691 80.333 433.691 76.8394V76.8174C433.691 72.6646 437.558 69.6763 442.964 69.6763C448.413 69.6763 451.907 72.4009 452.324 76.29V76.312H447.776V76.2681C447.314 74.5981 445.622 73.3457 442.942 73.3457C440.327 73.3457 438.437 74.6421 438.437 76.5537V76.5977C438.437 78.0918 439.536 79.0146 442.217 79.6519L445.996 80.5088C450.588 81.5854 452.785 83.541 452.785 86.9907V87.0347C452.785 91.4512 448.567 94.4614 442.898 94.4614ZM462.309 65.875C460.661 65.875 459.321 64.5347 459.321 62.9087C459.321 61.2607 460.661 59.9204 462.309 59.9204C463.935 59.9204 465.298 61.2607 465.298 62.9087C465.298 64.5347 463.935 65.875 462.309 65.875ZM459.914 94V70.1377H464.66V94H459.914ZM472.954 94V70.1377H477.722V73.8071H478.073C479.128 71.1924 481.457 69.6763 484.577 69.6763C487.829 69.6763 490.136 71.3682 491.191 73.939H491.565C492.773 71.3682 495.52 69.6763 498.837 69.6763C503.65 69.6763 506.462 72.5767 506.462 77.5425V94H501.716V78.6851C501.716 75.3892 500.222 73.7632 497.102 73.7632C494.069 73.7632 492.07 76.0264 492.07 78.9048V94H487.324V78.2017C487.324 75.4771 485.544 73.7632 482.732 73.7632C479.853 73.7632 477.722 76.2241 477.722 79.3442V94H472.954ZM514.47 101.954V70.1377H519.238V73.895H519.589C520.974 71.2803 523.588 69.7202 526.928 69.7202C532.949 69.7202 536.816 74.5322 536.816 82.0469V82.0908C536.816 89.6494 532.993 94.3955 526.928 94.3955C523.654 94.3955 520.864 92.7915 519.589 90.2207H519.238V101.954H514.47ZM525.588 90.3306C529.565 90.3306 531.96 87.2104 531.96 82.0908V82.0469C531.96 76.9053 529.565 73.8071 525.588 73.8071C521.611 73.8071 519.15 76.9492 519.15 82.0469V82.0908C519.15 87.1885 521.611 90.3306 525.588 90.3306ZM544.12 94V60.7773H548.889V94H544.12ZM559.819 65.875C558.171 65.875 556.83 64.5347 556.83 62.9087C556.83 61.2607 558.171 59.9204 559.819 59.9204C561.445 59.9204 562.807 61.2607 562.807 62.9087C562.807 64.5347 561.445 65.875 559.819 65.875ZM557.424 94V70.1377H562.17V94H557.424ZM572.155 94V73.895H568.222V70.1377H572.155V67.6328C572.155 62.8867 574.55 60.5576 579.538 60.5576C580.592 60.5576 581.515 60.6235 582.35 60.7773V64.271C581.911 64.2051 581.274 64.1611 580.527 64.1611C577.89 64.1611 576.857 65.4355 576.857 67.8525V70.1377H582.153V73.895H576.901V94H572.155ZM591.347 65.875C589.699 65.875 588.359 64.5347 588.359 62.9087C588.359 61.2607 589.699 59.9204 591.347 59.9204C592.973 59.9204 594.335 61.2607 594.335 62.9087C594.335 64.5347 592.973 65.875 591.347 65.875ZM588.952 94V70.1377H593.698V94H588.952ZM612.033 94.4614C605.067 94.4614 600.805 89.7153 600.805 82.0029V81.959C600.805 74.4004 605.045 69.6763 612.011 69.6763C618.009 69.6763 621.591 73.0601 622.25 77.6963V77.8062L617.68 77.8281L617.658 77.7622C617.13 75.4111 615.197 73.6533 612.033 73.6533C608.056 73.6533 605.661 76.8174 605.661 81.959V82.0029C605.661 87.2764 608.1 90.4844 612.033 90.4844C615.021 90.4844 616.867 89.1221 617.636 86.5513L617.68 86.4414H622.25L622.206 86.6392C621.349 91.2754 617.943 94.4614 612.033 94.4614ZM635.553 94.3955C631.005 94.3955 627.643 91.627 627.643 87.2983V87.2544C627.643 82.9917 630.851 80.5088 636.542 80.1572L643.002 79.7837V77.6743C643.002 75.0596 641.354 73.6094 638.124 73.6094C635.487 73.6094 633.751 74.5762 633.18 76.2681L633.158 76.356H628.566L628.588 76.2021C629.159 72.291 632.916 69.6763 638.344 69.6763C644.342 69.6763 647.726 72.6646 647.726 77.6743V94H643.002V90.6162H642.628C641.222 93.0332 638.717 94.3955 635.553 94.3955ZM632.389 87.1006C632.389 89.2979 634.257 90.5942 636.828 90.5942C640.387 90.5942 643.002 88.2651 643.002 85.189V83.1455L637.179 83.519C633.883 83.7168 632.389 84.9033 632.389 87.0566V87.1006ZM664.501 94.3955C658.502 94.3955 654.613 89.5835 654.613 82.0908V82.0469C654.613 74.4883 658.436 69.7202 664.501 69.7202C667.775 69.7202 670.565 71.3462 671.84 73.917H672.213V60.7773H676.959V94H672.213V90.2427H671.84C670.455 92.8574 667.841 94.3955 664.501 94.3955ZM665.863 90.3306C669.84 90.3306 672.279 87.1885 672.279 82.0908V82.0469C672.279 76.9492 669.818 73.8071 665.863 73.8071C661.864 73.8071 659.469 76.9272 659.469 82.0469V82.0908C659.469 87.2104 661.864 90.3306 665.863 90.3306ZM691.954 94.3955C687.406 94.3955 684.044 91.627 684.044 87.2983V87.2544C684.044 82.9917 687.252 80.5088 692.943 80.1572L699.403 79.7837V77.6743C699.403 75.0596 697.755 73.6094 694.525 73.6094C691.888 73.6094 690.153 74.5762 689.581 76.2681L689.559 76.356H684.967L684.989 76.2021C685.56 72.291 689.318 69.6763 694.745 69.6763C700.743 69.6763 704.127 72.6646 704.127 77.6743V94H699.403V90.6162H699.029C697.623 93.0332 695.118 94.3955 691.954 94.3955ZM688.79 87.1006C688.79 89.2979 690.658 90.5942 693.229 90.5942C696.788 90.5942 699.403 88.2651 699.403 85.189V83.1455L693.58 83.519C690.284 83.7168 688.79 84.9033 688.79 87.0566V87.1006ZM734.557 94.3955C728.558 94.3955 724.669 89.5835 724.669 82.0908V82.0469C724.669 74.4883 728.492 69.7202 734.557 69.7202C737.831 69.7202 740.621 71.3462 741.896 73.917H742.269V60.7773H747.015V94H742.269V90.2427H741.896C740.511 92.8574 737.896 94.3955 734.557 94.3955ZM735.919 90.3306C739.896 90.3306 742.335 87.1885 742.335 82.0908V82.0469C742.335 76.9492 739.874 73.8071 735.919 73.8071C731.92 73.8071 729.525 76.9272 729.525 82.0469V82.0908C729.525 87.2104 731.92 90.3306 735.919 90.3306ZM762.01 94.3955C757.462 94.3955 754.1 91.627 754.1 87.2983V87.2544C754.1 82.9917 757.308 80.5088 762.999 80.1572L769.459 79.7837V77.6743C769.459 75.0596 767.811 73.6094 764.581 73.6094C761.944 73.6094 760.208 74.5762 759.637 76.2681L759.615 76.356H755.023L755.045 76.2021C755.616 72.291 759.373 69.6763 764.801 69.6763C770.799 69.6763 774.183 72.6646 774.183 77.6743V94H769.459V90.6162H769.085C767.679 93.0332 765.174 94.3955 762.01 94.3955ZM758.846 87.1006C758.846 89.2979 760.714 90.5942 763.285 90.5942C766.844 90.5942 769.459 88.2651 769.459 85.189V83.1455L763.636 83.519C760.34 83.7168 758.846 84.9033 758.846 87.0566V87.1006ZM68.9196 146V122.138H73.6877V125.741H74.0392C74.8962 123.214 77.1154 121.72 80.3015 121.72C81.0705 121.72 81.9055 121.83 82.3889 121.94V126.334C81.5319 126.159 80.7189 126.049 79.8181 126.049C76.1706 126.049 73.6877 128.29 73.6877 131.74V146H68.9196ZM97.6915 146.461C90.7042 146.461 86.4854 141.693 86.4854 134.135V134.113C86.4854 126.664 90.7921 121.676 97.4498 121.676C104.108 121.676 108.194 126.488 108.194 133.651V135.321H91.2755C91.3634 139.892 93.8682 142.55 97.8014 142.55C100.856 142.55 102.679 141.034 103.251 139.804L103.338 139.628L107.931 139.606L107.887 139.804C107.096 142.946 103.8 146.461 97.6915 146.461ZM97.4718 125.587C94.2198 125.587 91.7589 127.807 91.3414 131.916H103.47C103.097 127.653 100.702 125.587 97.4718 125.587ZM123.915 146.396C117.916 146.396 114.027 141.583 114.027 134.091V134.047C114.027 126.488 117.85 121.72 123.915 121.72C127.188 121.72 129.979 123.346 131.253 125.917H131.627V112.777H136.373V146H131.627V142.243H131.253C129.869 144.857 127.254 146.396 123.915 146.396ZM125.277 142.331C129.254 142.331 131.693 139.188 131.693 134.091V134.047C131.693 128.949 129.232 125.807 125.277 125.807C121.278 125.807 118.883 128.927 118.883 134.047V134.091C118.883 139.21 121.278 142.331 125.277 142.331ZM154.84 146.461C147.852 146.461 143.634 141.693 143.634 134.135V134.113C143.634 126.664 147.94 121.676 154.598 121.676C161.256 121.676 165.343 126.488 165.343 133.651V135.321H148.424C148.512 139.892 151.016 142.55 154.95 142.55C158.004 142.55 159.828 141.034 160.399 139.804L160.487 139.628L165.079 139.606L165.035 139.804C164.244 142.946 160.948 146.461 154.84 146.461ZM154.62 125.587C151.368 125.587 148.907 127.807 148.49 131.916H160.619C160.245 127.653 157.85 125.587 154.62 125.587ZM194.717 146.396C188.719 146.396 184.83 141.583 184.83 134.091V134.047C184.83 126.488 188.653 121.72 194.717 121.72C197.991 121.72 200.782 123.346 202.056 125.917H202.43V112.777H207.176V146H202.43V142.243H202.056C200.672 144.857 198.057 146.396 194.717 146.396ZM196.08 142.331C200.057 142.331 202.496 139.188 202.496 134.091V134.047C202.496 128.949 200.035 125.807 196.08 125.807C192.081 125.807 189.686 128.927 189.686 134.047V134.091C189.686 139.21 192.081 142.331 196.08 142.331ZM225.643 146.461C218.655 146.461 214.437 141.693 214.437 134.135V134.113C214.437 126.664 218.743 121.676 225.401 121.676C232.059 121.676 236.146 126.488 236.146 133.651V135.321H219.227C219.315 139.892 221.819 142.55 225.753 142.55C228.807 142.55 230.63 141.034 231.202 139.804L231.29 139.628L235.882 139.606L235.838 139.804C235.047 142.946 231.751 146.461 225.643 146.461ZM225.423 125.587C222.171 125.587 219.71 127.807 219.293 131.916H231.421C231.048 127.653 228.653 125.587 225.423 125.587ZM266.905 154.416C260.84 154.416 257.105 151.757 256.534 147.78L256.578 147.736H261.39L261.412 147.78C261.807 149.428 263.741 150.592 266.971 150.592C270.904 150.592 273.233 148.747 273.233 145.495V140.792H272.881C271.431 143.385 268.794 144.835 265.52 144.835C259.39 144.835 255.611 140.111 255.611 133.388V133.344C255.611 126.532 259.412 121.72 265.608 121.72C268.948 121.72 271.541 123.368 272.925 126.049H273.211V122.138H277.957V145.517C277.957 150.944 273.672 154.416 266.905 154.416ZM266.839 140.902C270.882 140.902 273.321 137.826 273.321 133.366V133.322C273.321 128.883 270.86 125.763 266.839 125.763C262.774 125.763 260.489 128.883 260.489 133.322V133.366C260.489 137.804 262.774 140.902 266.839 140.902ZM286.162 146V122.138H290.93V125.741H291.282C292.139 123.214 294.358 121.72 297.544 121.72C298.313 121.72 299.148 121.83 299.632 121.94V126.334C298.775 126.159 297.962 126.049 297.061 126.049C293.413 126.049 290.93 128.29 290.93 131.74V146H286.162ZM311.902 146.396C307.354 146.396 303.992 143.627 303.992 139.298V139.254C303.992 134.992 307.2 132.509 312.891 132.157L319.351 131.784V129.674C319.351 127.06 317.703 125.609 314.473 125.609C311.836 125.609 310.1 126.576 309.529 128.268L309.507 128.356H304.915L304.937 128.202C305.508 124.291 309.265 121.676 314.693 121.676C320.691 121.676 324.075 124.665 324.075 129.674V146H319.351V142.616H318.977C317.571 145.033 315.066 146.396 311.902 146.396ZM308.738 139.101C308.738 141.298 310.606 142.594 313.176 142.594C316.736 142.594 319.351 140.265 319.351 137.189V135.146L313.528 135.519C310.232 135.717 308.738 136.903 308.738 139.057V139.101ZM333.84 146V125.895H329.907V122.138H333.84V119.633C333.84 114.887 336.235 112.558 341.223 112.558C342.278 112.558 343.201 112.624 344.036 112.777V116.271C343.596 116.205 342.959 116.161 342.212 116.161C339.575 116.161 338.543 117.436 338.543 119.853V122.138H343.838V125.895H338.587V146H333.84ZM359.734 146.461C352.725 146.461 348.44 141.781 348.44 134.091V134.047C348.44 126.378 352.747 121.676 359.734 121.676C366.699 121.676 371.006 126.356 371.006 134.047V134.091C371.006 141.781 366.721 146.461 359.734 146.461ZM359.734 142.484C363.821 142.484 366.15 139.364 366.15 134.091V134.047C366.15 128.751 363.821 125.653 359.734 125.653C355.625 125.653 353.318 128.751 353.318 134.047V134.091C353.318 139.386 355.625 142.484 359.734 142.484ZM386.726 146.461C380.969 146.461 377.322 143.759 376.86 139.76V139.738H381.628L381.65 139.76C382.244 141.562 383.979 142.77 386.814 142.77C389.758 142.77 391.802 141.43 391.802 139.474V139.43C391.802 137.936 390.681 136.925 387.912 136.288L384.111 135.409C379.607 134.376 377.519 132.333 377.519 128.839V128.817C377.519 124.665 381.387 121.676 386.792 121.676C392.241 121.676 395.735 124.401 396.152 128.29V128.312H391.604V128.268C391.142 126.598 389.451 125.346 386.77 125.346C384.155 125.346 382.266 126.642 382.266 128.554V128.598C382.266 130.092 383.364 131.015 386.045 131.652L389.824 132.509C394.416 133.585 396.614 135.541 396.614 138.991V139.035C396.614 143.451 392.395 146.461 386.726 146.461ZM426.01 146.396C420.012 146.396 416.123 141.583 416.123 134.091V134.047C416.123 126.488 419.946 121.72 426.01 121.72C429.284 121.72 432.075 123.346 433.349 125.917H433.723V112.777H438.469V146H433.723V142.243H433.349C431.965 144.857 429.35 146.396 426.01 146.396ZM427.373 142.331C431.35 142.331 433.789 139.188 433.789 134.091V134.047C433.789 128.949 431.328 125.807 427.373 125.807C423.374 125.807 420.979 128.927 420.979 134.047V134.091C420.979 139.21 423.374 142.331 427.373 142.331ZM456.936 146.461C449.948 146.461 445.73 141.693 445.73 134.135V134.113C445.73 126.664 450.036 121.676 456.694 121.676C463.352 121.676 467.439 126.488 467.439 133.651V135.321H450.52C450.608 139.892 453.112 142.55 457.046 142.55C460.1 142.55 461.923 141.034 462.495 139.804L462.583 139.628L467.175 139.606L467.131 139.804C466.34 142.946 463.044 146.461 456.936 146.461ZM456.716 125.587C453.464 125.587 451.003 127.807 450.586 131.916H462.714C462.341 127.653 459.946 125.587 456.716 125.587ZM489.804 146V125.895H485.871V122.138H489.804V119.633C489.804 114.887 492.199 112.558 497.187 112.558C498.242 112.558 499.164 112.624 499.999 112.777V116.271C499.56 116.205 498.923 116.161 498.176 116.161C495.539 116.161 494.506 117.436 494.506 119.853V122.138H499.802V125.895H494.55V146H489.804ZM506.733 146V112.777H511.501V146H506.733ZM527.902 146.461C522.519 146.461 519.728 143.231 519.728 137.584V122.138H524.496V136.464C524.496 140.419 525.946 142.375 529.44 142.375C533.263 142.375 535.307 139.979 535.307 136.134V122.138H540.053V146H535.307V142.396H534.933C533.791 144.967 531.374 146.461 527.902 146.461ZM546.435 146L554.367 134.113L546.369 122.138H551.884L557.025 130.663H557.399L562.497 122.138H567.77L559.882 133.915L567.858 146H562.431L557.201 137.387H556.85L551.62 146H546.435ZM583.073 146.461C576.063 146.461 571.779 141.781 571.779 134.091V134.047C571.779 126.378 576.085 121.676 583.073 121.676C590.038 121.676 594.345 126.356 594.345 134.047V134.091C594.345 141.781 590.06 146.461 583.073 146.461ZM583.073 142.484C587.16 142.484 589.489 139.364 589.489 134.091V134.047C589.489 128.751 587.16 125.653 583.073 125.653C578.964 125.653 576.657 128.751 576.657 134.047V134.091C576.657 139.386 578.964 142.484 583.073 142.484ZM615.04 146V122.138H619.808V125.807H620.16C621.215 123.192 623.544 121.676 626.664 121.676C629.916 121.676 632.223 123.368 633.278 125.939H633.651C634.86 123.368 637.606 121.676 640.924 121.676C645.736 121.676 648.549 124.577 648.549 129.542V146H643.803V130.685C643.803 127.389 642.308 125.763 639.188 125.763C636.156 125.763 634.157 128.026 634.157 130.905V146H629.41V130.202C629.41 127.477 627.631 125.763 624.818 125.763C621.94 125.763 619.808 128.224 619.808 131.344V146H615.04ZM667.499 118.842H663.741L667.587 111.283H672.662L667.499 118.842ZM663.104 146.396C658.556 146.396 655.194 143.627 655.194 139.298V139.254C655.194 134.992 658.402 132.509 664.093 132.157L670.553 131.784V129.674C670.553 127.06 668.905 125.609 665.675 125.609C663.038 125.609 661.302 126.576 660.731 128.268L660.709 128.356H656.117L656.139 128.202C656.71 124.291 660.467 121.676 665.895 121.676C671.893 121.676 675.277 124.665 675.277 129.674V146H670.553V142.616H670.179C668.773 145.033 666.268 146.396 663.104 146.396ZM659.94 139.101C659.94 141.298 661.808 142.594 664.379 142.594C667.938 142.594 670.553 140.265 670.553 137.189V135.146L664.73 135.519C661.434 135.717 659.94 136.903 659.94 139.057V139.101ZM681.505 146L689.437 134.113L681.439 122.138H686.954L692.096 130.663H692.469L697.567 122.138H702.84L694.952 133.915L702.928 146H697.501L692.272 137.387H691.92L686.69 146H681.505ZM711.705 117.875C710.057 117.875 708.717 116.535 708.717 114.909C708.717 113.261 710.057 111.92 711.705 111.92C713.331 111.92 714.693 113.261 714.693 114.909C714.693 116.535 713.331 117.875 711.705 117.875ZM709.31 146V122.138H714.056V146H709.31ZM722.349 146V122.138H727.118V125.807H727.469C728.524 123.192 730.853 121.676 733.973 121.676C737.225 121.676 739.532 123.368 740.587 125.939H740.96C742.169 123.368 744.915 121.676 748.233 121.676C753.045 121.676 755.858 124.577 755.858 129.542V146H751.112V130.685C751.112 127.389 749.618 125.763 746.497 125.763C743.465 125.763 741.466 128.026 741.466 130.905V146H736.72V130.202C736.72 127.477 734.94 125.763 732.127 125.763C729.249 125.763 727.118 128.224 727.118 131.344V146H722.349ZM773.973 146.461C766.964 146.461 762.679 141.781 762.679 134.091V134.047C762.679 126.378 766.986 121.676 773.973 121.676C780.938 121.676 785.245 126.356 785.245 134.047V134.091C785.245 141.781 780.96 146.461 773.973 146.461ZM773.973 142.484C778.06 142.484 780.389 139.364 780.389 134.091V134.047C780.389 128.751 778.06 125.653 773.973 125.653C769.864 125.653 767.557 128.751 767.557 134.047V134.091C767.557 139.386 769.864 142.484 773.973 142.484Z" fill="black"/>
</svg>
